<?xml version="1.0" encoding="utf-8"?>
<!-- Generator: Adobe Illustrator 22.1.0, SVG Export Plug-In . SVG Version: 6.00 Build 0)  -->
<svg version="1.1" id="Calque_1" xmlns="http://www.w3.org/2000/svg" xmlns:xlink="http://www.w3.org/1999/xlink" x="0px" y="0px"
	 width="200px" height="90px" viewBox="0 0 200 90" style="enable-background:new 0 0 200 90;" xml:space="preserve">
<style type="text/css">
	.st0{fill:#488FCC;}
	.st1{opacity:0.25;fill:#FFFFFF;enable-background:new    ;}
	.st2{fill:#FFFFFF;stroke:#3474BB;stroke-width:0.5;stroke-miterlimit:10;}
	.st3{fill:#8CC34A;}
	.st4{fill:#FDFEFF;stroke:#578B3E;stroke-width:0.5;stroke-miterlimit:10;}
	.st5{fill:#E72265;}
	.st6{fill:#FFFFFF;stroke:#C21E5C;stroke-width:0.5;stroke-miterlimit:10;}
</style>
<g>
	<g>
		<g>
			<g>
				<path class="st0" d="M46.3,18.7L27.8,29.4c-1.7,1-2.8,2.8-2.8,4.8v21.5c0,1.9,1.1,3.7,2.8,4.8l18.6,10.7c1.7,1,3.9,1,5.5,0
					l18.6-10.7c1.7-1,2.8-2.8,2.8-4.8V34.3c0-1.9-1.1-3.7-2.8-4.8L51.8,18.7C50.2,17.8,48,17.8,46.3,18.7z"/>
				<path class="st1" d="M63,28.1l-29.4,9.1c-2.1,0.7-3.2,2.8-2.5,4.8l7.7,24.6l7.7,4.4c1.7,1,3.9,1,5.5,0l15.4-8.9
					c-2.1,0.1-4-1.1-4.7-3.2c-0.7-2.3,0.6-5,3-5.6c2.3-0.7,5,0.6,5.6,3c0.4,1.4,0.1,2.9-0.7,4c1.7-1,2.8-2.8,2.8-4.7v-7.7l-5.4-17.3
					C67.1,28.6,65,27.5,63,28.1z M42.5,48.6c-2.3,0.7-5-0.6-5.6-3c-0.7-2.3,0.6-5,3-5.6c2.3-0.7,5,0.6,5.6,3
					C46.1,45.4,44.8,47.9,42.5,48.6z M55.3,55.3c-2.3,0.7-5-0.6-5.6-3c-0.7-2.3,0.6-5,3-5.6c2.3-0.7,5,0.6,5.6,3
					C59,52.2,57.6,54.6,55.3,55.3z"/>
			</g>
			<g>
				<path class="st2" d="M34.1,37.8l0.1,1.8c1.1-1.4,2.6-2.1,4.5-2.1c2.1,0,3.4,0.8,4.3,2.5c1.1-1.7,2.8-2.5,4.8-2.5
					c1.8,0,3,0.6,3.9,1.5c0.8,1,1.2,2.5,1.2,4.5v10.2h-4.3V43.6c0-1-0.1-1.5-0.6-1.9c-0.4-0.4-1-0.7-1.9-0.7c-1.2,0-2.2,0.6-2.6,1.8
					v11h-4.3V43.6c0-1-0.1-1.7-0.6-2.1c-0.4-0.4-1-0.7-1.9-0.7c-1.2,0-2.1,0.6-2.6,1.5v11.3H30V37.8H34.1z"/>
				<path class="st2" d="M62.2,47.8l2.9-9.9h4.7l-6.5,18.4l-0.4,0.8c-1,2.1-2.5,3.2-4.7,3.2c-0.7,0-1.2-0.1-1.9-0.3v-3.3h0.7
					c0.8,0,1.4-0.1,1.8-0.4c0.4-0.3,0.7-0.7,1-1.2l0.6-1.4l-5.6-15.8h4.5L62.2,47.8z"/>
			</g>
		</g>
		<g>
			<g>
				<path class="st3" d="M97.2,18.7L78.7,29.4c-1.7,1-2.8,2.8-2.8,4.8v21.5c0,1.9,1.1,3.7,2.8,4.8l18.6,10.7c1.7,1,3.9,1,5.5,0
					l18.6-10.7c1.7-1,2.8-2.8,2.8-4.8V34.3c0-1.9-1.1-3.7-2.8-4.8l-18.6-10.7C101.1,17.8,98.9,17.8,97.2,18.7z"/>
				<path class="st1" d="M116.5,54.5c-0.6-1.5-0.3-2.1,1.4-2.2c1-0.1,2.1-0.1,3-0.1c1.2,0,2.3-0.3,3.2-1v-5.8
					c-1-1.1-2.2-1.9-3.6-2.6c-2.6-1.1-5.4-2.1-8-3c-0.8-0.3-1.2-0.7-1.2-1.7c0-0.7-0.1-1.4-0.3-2.2c-0.6-2.9-2.2-4.8-5.1-5.4
					c-1-0.3-1.7-0.3-2.5,0c-4.1,1-5.2,4-5.4,7.6c0,0.8-0.3,1.2-1.1,1.5c-2.5,0.8-5,1.7-7.3,2.8c-2.3,1-4.5,2.5-5.6,5
					c0,0.7,0,1.2,0,1.8c0.7,2.2,2.3,2.9,4.4,2.9c1.1,0,2.2,0.1,3.3,0.1c1.4,0.1,1.7,0.7,1.2,1.9c-0.6,1.2-1.2,2.5-1.8,3.7
					c-1.2,2.5-2.6,5-3.9,7.4l9.9,5.6c0.4,0.3,1,0.4,1.4,0.6c0.6-0.7,1.2-1.2,1.7-1.9c1.1-1.7,2.1-3.4,3.2-5.1c0.8-1.2,1.4-1.2,2.2,0
					c0.7,1.1,1.4,2.2,2.2,3.4l12.1-7c-0.8-1.4-1.7-2.9-2.3-4.3C117.2,56.1,116.8,55.3,116.5,54.5z"/>
			</g>
			<g>
				<path class="st4" d="M92.6,55.5h-5.1V28.6h5.1V55.5z"/>
				<path class="st4" d="M108,53.5c-1.2,1.5-3,2.3-5.2,2.3c-2.1,0-3.6-0.6-4.7-1.8s-1.7-2.9-1.7-5.1V36.6h5.1v12.2
					c0,1.9,1,2.9,2.8,2.9c1.7,0,2.9-0.6,3.6-1.8V36.6h5.1v18.9h-4.8L108,53.5z"/>
			</g>
		</g>
		<g>
			<g>
				<path class="st5" d="M148.2,18.7l-18.6,10.7c-1.7,1-2.8,2.8-2.8,4.8v21.5c0,1.9,1.1,3.7,2.8,4.8l18.6,10.7c1.7,1,3.9,1,5.5,0
					l18.6-10.7c1.7-1,2.8-2.8,2.8-4.8V34.3c0-1.9-1.1-3.7-2.8-4.8l-18.6-10.7C152,17.8,149.8,17.8,148.2,18.7z"/>
				<path class="st1" d="M152.2,25c-2.2-0.7-4.5,0.6-5.2,2.8L135.5,64l12.5,7.3c1.7,1,3.9,1,5.5,0l18.6-10.7c1.7-1,2.8-2.8,2.8-4.8
					V34.3c0-0.8-0.1-1.5-0.4-2.2L152.2,25z M150.1,29.2c0.1-0.3,0.3-0.6,0.6-0.7c0.3-0.1,0.6-0.1,0.8,0c0.1,0,0.1,0.1,0.3,0.1
					c0.1,0,0.1,0.1,0.3,0.1c0,0.1,0.1,0.1,0.1,0.1l0.1,0.1c0,0,0.1,0,0.1-0.1c0.1,0,0.1,0,0.3-0.1c0.1,0,0.1,0,0.3,0
					c0.1,0,0.1,0,0.3,0c0.3,0.1,0.6,0.3,0.7,0.6c0.1,0.3,0.1,0.6,0,0.8c-0.1,0.3-0.4,0.6-0.8,0.8l-1.7,0.8c0,0,0,0-0.1,0
					c0,0,0,0-0.1,0l-1-1.7c0,0,0,0,0-0.1c0,0,0-0.1-0.1-0.1c0-0.1,0-0.1-0.1-0.3c0-0.1,0-0.1,0-0.3
					C150.1,29.3,150.1,29.2,150.1,29.2z M167.2,55.3c-0.4,1.5-1.8,2.8-3.7,3.9l-8.3,4.1c-0.1,0.1-0.3,0.1-0.6,0
					c-0.1,0-0.3-0.1-0.4-0.3l-4.4-8.1c0-0.1-0.1-0.1-0.1-0.4c-0.1-0.1-0.1-0.4-0.4-0.8c-0.1-0.4-0.3-0.8-0.4-1.2
					c-0.1-0.4-0.1-0.8-0.1-1.4s0-1,0.1-1.5c0.4-1.5,1.2-2.5,2.3-3.2c1.1-0.6,2.5-0.7,4-0.1c0.4,0.1,0.8,0.3,1.2,0.7
					c0.4,0.3,0.7,0.6,1.1,1c0.3,0.4,0.6,0.7,0.7,1c0.1,0.3,0.4,0.6,0.6,1c0.3-0.1,0.7-0.3,1-0.4c0.3-0.1,0.7-0.3,1.2-0.4
					c0.4-0.1,1-0.1,1.4-0.3c0.6,0,1,0,1.4,0.1c1.5,0.4,2.6,1.2,3.2,2.3C167.4,52.3,167.7,53.8,167.2,55.3z"/>
			</g>
			<g>
				<g>
					<path class="st6" d="M131.9,45.8c0-2.9,0.7-5.2,1.9-7c1.2-1.8,3.2-2.6,5.4-2.6c1.8,0,3.3,0.7,4.5,2.1v-9.6h5.1v26.8h-4.5
						l-0.3-2.1c-1.2,1.5-2.9,2.3-4.8,2.3c-2.2,0-4-0.8-5.4-2.6C132.5,51.3,131.9,49,131.9,45.8z M136.9,46.2c0,1.8,0.3,3.2,1,4.1
						c0.7,1,1.5,1.4,2.8,1.4c1.5,0,2.6-0.7,3.3-1.9v-7.6c-0.7-1.4-1.7-1.9-3.3-1.9C138.1,40.3,136.9,42.2,136.9,46.2z"/>
					<path class="st6" d="M152,45.8c0-1.9,0.4-3.6,1.1-5c0.7-1.4,1.8-2.6,3.2-3.4c1.4-0.8,2.9-1.2,4.7-1.2c2.6,0,4.7,0.8,6.2,2.3
						c1.5,1.5,2.5,3.7,2.8,6.3v1.2c0,2.9-0.8,5.2-2.5,7c-1.7,1.8-3.9,2.6-6.5,2.6s-5-0.8-6.5-2.6C153,51.3,152,49,152,46V45.8z
						 M157.1,46.2c0,1.8,0.3,3.2,1,4.1c0.7,1,1.7,1.4,2.9,1.4c1.2,0,2.2-0.4,2.9-1.4c0.7-1,1-2.5,1-4.5c0-1.8-0.3-3.2-1-4.1
						c-0.7-1-1.7-1.5-2.9-1.5c-1.2,0-2.2,0.4-2.9,1.4C157.4,42.7,157.1,44.2,157.1,46.2z"/>
				</g>
			</g>
		</g>
	</g>
</g>
</svg>
